<?xml version="1.0" encoding="us-ascii" standalone="no"?><svg xmlns="http://www.w3.org/2000/svg" xmlns:xlink="http://www.w3.org/1999/xlink" contentStyleType="text/css" height="602px" preserveAspectRatio="none" style="width:509px;height:602px;background:#FFFFFF;" version="1.1" viewBox="0 0 509 602" width="509px" zoomAndPan="magnify"><defs/><g><!--class Clients--><g id="elem_Clients"><rect fill="#F1F1F1" height="48" id="Clients" rx="2.5" ry="2.5" style="stroke:#181818;stroke-width:0.5;" width="82" x="259" y="7"/><ellipse cx="274" cy="23" fill="#ADD1B2" rx="11" ry="11" style="stroke:#181818;stroke-width:1.0;"/><path d="M276.3438,18.6719 C275.4063,18.2344 274.8125,18.0938 273.9375,18.0938 C271.3125,18.0938 269.3125,20.1719 269.3125,22.8906 L269.3125,24.0156 C269.3125,26.5938 271.4219,28.4844 274.3125,28.4844 C275.5313,28.4844 276.6875,28.1875 277.4375,27.6406 C278.0156,27.2344 278.3438,26.7813 278.3438,26.3906 C278.3438,25.9375 277.9531,25.5469 277.4844,25.5469 C277.2656,25.5469 277.0625,25.625 276.875,25.8125 C276.4219,26.2969 276.4219,26.2969 276.2344,26.3906 C275.8125,26.6563 275.125,26.7813 274.3594,26.7813 C272.3125,26.7813 271.0156,25.6875 271.0156,23.9844 L271.0156,22.8906 C271.0156,21.1094 272.2656,19.7969 274,19.7969 C274.5781,19.7969 275.1875,19.9531 275.6563,20.2031 C276.1406,20.4844 276.3125,20.7031 276.4063,21.1094 C276.4688,21.5156 276.5,21.6406 276.6406,21.7656 C276.7813,21.9063 277.0156,22.0156 277.2344,22.0156 C277.5,22.0156 277.7656,21.875 277.9375,21.6563 C278.0469,21.5 278.0781,21.3125 278.0781,20.8906 L278.0781,19.4688 C278.0781,19.0313 278.0625,18.9063 277.9688,18.75 C277.8125,18.4844 277.5313,18.3438 277.2344,18.3438 C276.9375,18.3438 276.7344,18.4375 276.5156,18.75 L276.3438,18.6719 Z " fill="#000000"/><text fill="#000000" font-family="sans-serif" font-size="14" lengthAdjust="spacing" textLength="50" x="288" y="27.8467">Clients</text><line style="stroke:#181818;stroke-width:0.5;" x1="260" x2="340" y1="39" y2="39"/><line style="stroke:#181818;stroke-width:0.5;" x1="260" x2="340" y1="47" y2="47"/></g><!--class Accounts--><g id="elem_Accounts"><rect fill="#F1F1F1" height="48" id="Accounts" rx="2.5" ry="2.5" style="stroke:#181818;stroke-width:0.5;" width="98" x="251" y="223"/><ellipse cx="266" cy="239" fill="#ADD1B2" rx="11" ry="11" style="stroke:#181818;stroke-width:1.0;"/><path d="M268.3438,234.6719 C267.4063,234.2344 266.8125,234.0938 265.9375,234.0938 C263.3125,234.0938 261.3125,236.1719 261.3125,238.8906 L261.3125,240.0156 C261.3125,242.5938 263.4219,244.4844 266.3125,244.4844 C267.5313,244.4844 268.6875,244.1875 269.4375,243.6406 C270.0156,243.2344 270.3438,242.7813 270.3438,242.3906 C270.3438,241.9375 269.9531,241.5469 269.4844,241.5469 C269.2656,241.5469 269.0625,241.625 268.875,241.8125 C268.4219,242.2969 268.4219,242.2969 268.2344,242.3906 C267.8125,242.6563 267.125,242.7813 266.3594,242.7813 C264.3125,242.7813 263.0156,241.6875 263.0156,239.9844 L263.0156,238.8906 C263.0156,237.1094 264.2656,235.7969 266,235.7969 C266.5781,235.7969 267.1875,235.9531 267.6563,236.2031 C268.1406,236.4844 268.3125,236.7031 268.4063,237.1094 C268.4688,237.5156 268.5,237.6406 268.6406,237.7656 C268.7813,237.9063 269.0156,238.0156 269.2344,238.0156 C269.5,238.0156 269.7656,237.875 269.9375,237.6563 C270.0469,237.5 270.0781,237.3125 270.0781,236.8906 L270.0781,235.4688 C270.0781,235.0313 270.0625,234.9063 269.9688,234.75 C269.8125,234.4844 269.5313,234.3438 269.2344,234.3438 C268.9375,234.3438 268.7344,234.4375 268.5156,234.75 L268.3438,234.6719 Z " fill="#000000"/><text fill="#000000" font-family="sans-serif" font-size="14" lengthAdjust="spacing" textLength="66" x="280" y="243.8467">Accounts</text><line style="stroke:#181818;stroke-width:0.5;" x1="252" x2="348" y1="255" y2="255"/><line style="stroke:#181818;stroke-width:0.5;" x1="252" x2="348" y1="263" y2="263"/></g><!--class Contracts--><g id="elem_Contracts"><rect fill="#F1F1F1" height="48" id="Contracts" rx="2.5" ry="2.5" style="stroke:#181818;stroke-width:0.5;" width="103" x="301.5" y="115"/><ellipse cx="316.5" cy="131" fill="#ADD1B2" rx="11" ry="11" style="stroke:#181818;stroke-width:1.0;"/><path d="M318.8438,126.6719 C317.9063,126.2344 317.3125,126.0938 316.4375,126.0938 C313.8125,126.0938 311.8125,128.1719 311.8125,130.8906 L311.8125,132.0156 C311.8125,134.5938 313.9219,136.4844 316.8125,136.4844 C318.0313,136.4844 319.1875,136.1875 319.9375,135.6406 C320.5156,135.2344 320.8438,134.7813 320.8438,134.3906 C320.8438,133.9375 320.4531,133.5469 319.9844,133.5469 C319.7656,133.5469 319.5625,133.625 319.375,133.8125 C318.9219,134.2969 318.9219,134.2969 318.7344,134.3906 C318.3125,134.6563 317.625,134.7813 316.8594,134.7813 C314.8125,134.7813 313.5156,133.6875 313.5156,131.9844 L313.5156,130.8906 C313.5156,129.1094 314.7656,127.7969 316.5,127.7969 C317.0781,127.7969 317.6875,127.9531 318.1563,128.2031 C318.6406,128.4844 318.8125,128.7031 318.9063,129.1094 C318.9688,129.5156 319,129.6406 319.1406,129.7656 C319.2813,129.9063 319.5156,130.0156 319.7344,130.0156 C320,130.0156 320.2656,129.875 320.4375,129.6563 C320.5469,129.5 320.5781,129.3125 320.5781,128.8906 L320.5781,127.4688 C320.5781,127.0313 320.5625,126.9063 320.4688,126.75 C320.3125,126.4844 320.0313,126.3438 319.7344,126.3438 C319.4375,126.3438 319.2344,126.4375 319.0156,126.75 L318.8438,126.6719 Z " fill="#000000"/><text fill="#000000" font-family="sans-serif" font-size="14" lengthAdjust="spacing" textLength="71" x="330.5" y="135.8467">Contracts</text><line style="stroke:#181818;stroke-width:0.5;" x1="302.5" x2="403.5" y1="147" y2="147"/><line style="stroke:#181818;stroke-width:0.5;" x1="302.5" x2="403.5" y1="155" y2="155"/></g><!--class Currency--><g id="elem_Currency"><rect fill="#F1F1F1" height="48" id="Currency" rx="2.5" ry="2.5" style="stroke:#181818;stroke-width:0.5;" width="96" x="10" y="331"/><ellipse cx="25" cy="347" fill="#ADD1B2" rx="11" ry="11" style="stroke:#181818;stroke-width:1.0;"/><path d="M27.3438,342.6719 C26.4063,342.2344 25.8125,342.0938 24.9375,342.0938 C22.3125,342.0938 20.3125,344.1719 20.3125,346.8906 L20.3125,348.0156 C20.3125,350.5938 22.4219,352.4844 25.3125,352.4844 C26.5313,352.4844 27.6875,352.1875 28.4375,351.6406 C29.0156,351.2344 29.3438,350.7813 29.3438,350.3906 C29.3438,349.9375 28.9531,349.5469 28.4844,349.5469 C28.2656,349.5469 28.0625,349.625 27.875,349.8125 C27.4219,350.2969 27.4219,350.2969 27.2344,350.3906 C26.8125,350.6563 26.125,350.7813 25.3594,350.7813 C23.3125,350.7813 22.0156,349.6875 22.0156,347.9844 L22.0156,346.8906 C22.0156,345.1094 23.2656,343.7969 25,343.7969 C25.5781,343.7969 26.1875,343.9531 26.6563,344.2031 C27.1406,344.4844 27.3125,344.7031 27.4063,345.1094 C27.4688,345.5156 27.5,345.6406 27.6406,345.7656 C27.7813,345.9063 28.0156,346.0156 28.2344,346.0156 C28.5,346.0156 28.7656,345.875 28.9375,345.6563 C29.0469,345.5 29.0781,345.3125 29.0781,344.8906 L29.0781,343.4688 C29.0781,343.0313 29.0625,342.9063 28.9688,342.75 C28.8125,342.4844 28.5313,342.3438 28.2344,342.3438 C27.9375,342.3438 27.7344,342.4375 27.5156,342.75 L27.3438,342.6719 Z " fill="#000000"/><text fill="#000000" font-family="sans-serif" font-size="14" lengthAdjust="spacing" textLength="64" x="39" y="351.8467">Currency</text><line style="stroke:#181818;stroke-width:0.5;" x1="11" x2="105" y1="363" y2="363"/><line style="stroke:#181818;stroke-width:0.5;" x1="11" x2="105" y1="371" y2="371"/></g><!--class Rate--><g id="elem_Rate"><rect fill="#F1F1F1" height="48" id="Rate" rx="2.5" ry="2.5" style="stroke:#181818;stroke-width:0.5;" width="66" x="25" y="439"/><ellipse cx="40" cy="455" fill="#ADD1B2" rx="11" ry="11" style="stroke:#181818;stroke-width:1.0;"/><path d="M42.3438,450.6719 C41.4063,450.2344 40.8125,450.0938 39.9375,450.0938 C37.3125,450.0938 35.3125,452.1719 35.3125,454.8906 L35.3125,456.0156 C35.3125,458.5938 37.4219,460.4844 40.3125,460.4844 C41.5313,460.4844 42.6875,460.1875 43.4375,459.6406 C44.0156,459.2344 44.3438,458.7813 44.3438,458.3906 C44.3438,457.9375 43.9531,457.5469 43.4844,457.5469 C43.2656,457.5469 43.0625,457.625 42.875,457.8125 C42.4219,458.2969 42.4219,458.2969 42.2344,458.3906 C41.8125,458.6563 41.125,458.7813 40.3594,458.7813 C38.3125,458.7813 37.0156,457.6875 37.0156,455.9844 L37.0156,454.8906 C37.0156,453.1094 38.2656,451.7969 40,451.7969 C40.5781,451.7969 41.1875,451.9531 41.6563,452.2031 C42.1406,452.4844 42.3125,452.7031 42.4063,453.1094 C42.4688,453.5156 42.5,453.6406 42.6406,453.7656 C42.7813,453.9063 43.0156,454.0156 43.2344,454.0156 C43.5,454.0156 43.7656,453.875 43.9375,453.6563 C44.0469,453.5 44.0781,453.3125 44.0781,452.8906 L44.0781,451.4688 C44.0781,451.0313 44.0625,450.9063 43.9688,450.75 C43.8125,450.4844 43.5313,450.3438 43.2344,450.3438 C42.9375,450.3438 42.7344,450.4375 42.5156,450.75 L42.3438,450.6719 Z " fill="#000000"/><text fill="#000000" font-family="sans-serif" font-size="14" lengthAdjust="spacing" textLength="34" x="54" y="459.8467">Rate</text><line style="stroke:#181818;stroke-width:0.5;" x1="26" x2="90" y1="471" y2="471"/><line style="stroke:#181818;stroke-width:0.5;" x1="26" x2="90" y1="479" y2="479"/></g><!--class TypeRate--><g id="elem_TypeRate"><rect fill="#F1F1F1" height="48" id="TypeRate" rx="2.5" ry="2.5" style="stroke:#181818;stroke-width:0.5;" width="102" x="7" y="547"/><ellipse cx="22" cy="563" fill="#ADD1B2" rx="11" ry="11" style="stroke:#181818;stroke-width:1.0;"/><path d="M24.3438,558.6719 C23.4063,558.2344 22.8125,558.0938 21.9375,558.0938 C19.3125,558.0938 17.3125,560.1719 17.3125,562.8906 L17.3125,564.0156 C17.3125,566.5938 19.4219,568.4844 22.3125,568.4844 C23.5313,568.4844 24.6875,568.1875 25.4375,567.6406 C26.0156,567.2344 26.3438,566.7813 26.3438,566.3906 C26.3438,565.9375 25.9531,565.5469 25.4844,565.5469 C25.2656,565.5469 25.0625,565.625 24.875,565.8125 C24.4219,566.2969 24.4219,566.2969 24.2344,566.3906 C23.8125,566.6563 23.125,566.7813 22.3594,566.7813 C20.3125,566.7813 19.0156,565.6875 19.0156,563.9844 L19.0156,562.8906 C19.0156,561.1094 20.2656,559.7969 22,559.7969 C22.5781,559.7969 23.1875,559.9531 23.6563,560.2031 C24.1406,560.4844 24.3125,560.7031 24.4063,561.1094 C24.4688,561.5156 24.5,561.6406 24.6406,561.7656 C24.7813,561.9063 25.0156,562.0156 25.2344,562.0156 C25.5,562.0156 25.7656,561.875 25.9375,561.6563 C26.0469,561.5 26.0781,561.3125 26.0781,560.8906 L26.0781,559.4688 C26.0781,559.0313 26.0625,558.9063 25.9688,558.75 C25.8125,558.4844 25.5313,558.3438 25.2344,558.3438 C24.9375,558.3438 24.7344,558.4375 24.5156,558.75 L24.3438,558.6719 Z " fill="#000000"/><text fill="#000000" font-family="sans-serif" font-size="14" lengthAdjust="spacing" textLength="70" x="36" y="567.8467">TypeRate</text><line style="stroke:#181818;stroke-width:0.5;" x1="8" x2="108" y1="579" y2="579"/><line style="stroke:#181818;stroke-width:0.5;" x1="8" x2="108" y1="587" y2="587"/></g><!--class Saldo--><g id="elem_Saldo"><rect fill="#F1F1F1" height="48" id="Saldo" rx="2.5" ry="2.5" style="stroke:#181818;stroke-width:0.5;" width="71" x="141.5" y="331"/><ellipse cx="156.5" cy="347" fill="#ADD1B2" rx="11" ry="11" style="stroke:#181818;stroke-width:1.0;"/><path d="M158.8438,342.6719 C157.9063,342.2344 157.3125,342.0938 156.4375,342.0938 C153.8125,342.0938 151.8125,344.1719 151.8125,346.8906 L151.8125,348.0156 C151.8125,350.5938 153.9219,352.4844 156.8125,352.4844 C158.0313,352.4844 159.1875,352.1875 159.9375,351.6406 C160.5156,351.2344 160.8438,350.7813 160.8438,350.3906 C160.8438,349.9375 160.4531,349.5469 159.9844,349.5469 C159.7656,349.5469 159.5625,349.625 159.375,349.8125 C158.9219,350.2969 158.9219,350.2969 158.7344,350.3906 C158.3125,350.6563 157.625,350.7813 156.8594,350.7813 C154.8125,350.7813 153.5156,349.6875 153.5156,347.9844 L153.5156,346.8906 C153.5156,345.1094 154.7656,343.7969 156.5,343.7969 C157.0781,343.7969 157.6875,343.9531 158.1563,344.2031 C158.6406,344.4844 158.8125,344.7031 158.9063,345.1094 C158.9688,345.5156 159,345.6406 159.1406,345.7656 C159.2813,345.9063 159.5156,346.0156 159.7344,346.0156 C160,346.0156 160.2656,345.875 160.4375,345.6563 C160.5469,345.5 160.5781,345.3125 160.5781,344.8906 L160.5781,343.4688 C160.5781,343.0313 160.5625,342.9063 160.4688,342.75 C160.3125,342.4844 160.0313,342.3438 159.7344,342.3438 C159.4375,342.3438 159.2344,342.4375 159.0156,342.75 L158.8438,342.6719 Z " fill="#000000"/><text fill="#000000" font-family="sans-serif" font-size="14" lengthAdjust="spacing" textLength="39" x="170.5" y="351.8467">Saldo</text><line style="stroke:#181818;stroke-width:0.5;" x1="142.5" x2="211.5" y1="363" y2="363"/><line style="stroke:#181818;stroke-width:0.5;" x1="142.5" x2="211.5" y1="371" y2="371"/></g><!--class BaseSaldo--><g id="elem_BaseSaldo"><rect fill="#F1F1F1" height="48" id="BaseSaldo" rx="2.5" ry="2.5" style="stroke:#181818;stroke-width:0.5;" width="105" x="247.5" y="331"/><ellipse cx="262.5" cy="347" fill="#ADD1B2" rx="11" ry="11" style="stroke:#181818;stroke-width:1.0;"/><path d="M264.8438,342.6719 C263.9063,342.2344 263.3125,342.0938 262.4375,342.0938 C259.8125,342.0938 257.8125,344.1719 257.8125,346.8906 L257.8125,348.0156 C257.8125,350.5938 259.9219,352.4844 262.8125,352.4844 C264.0313,352.4844 265.1875,352.1875 265.9375,351.6406 C266.5156,351.2344 266.8438,350.7813 266.8438,350.3906 C266.8438,349.9375 266.4531,349.5469 265.9844,349.5469 C265.7656,349.5469 265.5625,349.625 265.375,349.8125 C264.9219,350.2969 264.9219,350.2969 264.7344,350.3906 C264.3125,350.6563 263.625,350.7813 262.8594,350.7813 C260.8125,350.7813 259.5156,349.6875 259.5156,347.9844 L259.5156,346.8906 C259.5156,345.1094 260.7656,343.7969 262.5,343.7969 C263.0781,343.7969 263.6875,343.9531 264.1563,344.2031 C264.6406,344.4844 264.8125,344.7031 264.9063,345.1094 C264.9688,345.5156 265,345.6406 265.1406,345.7656 C265.2813,345.9063 265.5156,346.0156 265.7344,346.0156 C266,346.0156 266.2656,345.875 266.4375,345.6563 C266.5469,345.5 266.5781,345.3125 266.5781,344.8906 L266.5781,343.4688 C266.5781,343.0313 266.5625,342.9063 266.4688,342.75 C266.3125,342.4844 266.0313,342.3438 265.7344,342.3438 C265.4375,342.3438 265.2344,342.4375 265.0156,342.75 L264.8438,342.6719 Z " fill="#000000"/><text fill="#000000" font-family="sans-serif" font-size="14" lengthAdjust="spacing" textLength="73" x="276.5" y="351.8467">BaseSaldo</text><line style="stroke:#181818;stroke-width:0.5;" x1="248.5" x2="351.5" y1="363" y2="363"/><line style="stroke:#181818;stroke-width:0.5;" x1="248.5" x2="351.5" y1="371" y2="371"/></g><!--class Documents--><g id="elem_Documents"><rect fill="#F1F1F1" height="48" id="Documents" rx="2.5" ry="2.5" style="stroke:#181818;stroke-width:0.5;" width="114" x="388" y="331"/><ellipse cx="403" cy="347" fill="#ADD1B2" rx="11" ry="11" style="stroke:#181818;stroke-width:1.0;"/><path d="M405.3438,342.6719 C404.4063,342.2344 403.8125,342.0938 402.9375,342.0938 C400.3125,342.0938 398.3125,344.1719 398.3125,346.8906 L398.3125,348.0156 C398.3125,350.5938 400.4219,352.4844 403.3125,352.4844 C404.5313,352.4844 405.6875,352.1875 406.4375,351.6406 C407.0156,351.2344 407.3438,350.7813 407.3438,350.3906 C407.3438,349.9375 406.9531,349.5469 406.4844,349.5469 C406.2656,349.5469 406.0625,349.625 405.875,349.8125 C405.4219,350.2969 405.4219,350.2969 405.2344,350.3906 C404.8125,350.6563 404.125,350.7813 403.3594,350.7813 C401.3125,350.7813 400.0156,349.6875 400.0156,347.9844 L400.0156,346.8906 C400.0156,345.1094 401.2656,343.7969 403,343.7969 C403.5781,343.7969 404.1875,343.9531 404.6563,344.2031 C405.1406,344.4844 405.3125,344.7031 405.4063,345.1094 C405.4688,345.5156 405.5,345.6406 405.6406,345.7656 C405.7813,345.9063 406.0156,346.0156 406.2344,346.0156 C406.5,346.0156 406.7656,345.875 406.9375,345.6563 C407.0469,345.5 407.0781,345.3125 407.0781,344.8906 L407.0781,343.4688 C407.0781,343.0313 407.0625,342.9063 406.9688,342.75 C406.8125,342.4844 406.5313,342.3438 406.2344,342.3438 C405.9375,342.3438 405.7344,342.4375 405.5156,342.75 L405.3438,342.6719 Z " fill="#000000"/><text fill="#000000" font-family="sans-serif" font-size="14" lengthAdjust="spacing" textLength="82" x="417" y="351.8467">Documents</text><line style="stroke:#181818;stroke-width:0.5;" x1="389" x2="501" y1="363" y2="363"/><line style="stroke:#181818;stroke-width:0.5;" x1="389" x2="501" y1="371" y2="371"/></g><!--link Clients to Accounts--><g id="link_Clients_Accounts"><path codeLine="1" d="M292.51,63.277 C289.182,78.741 285.648,97.744 284,115 C281.972,136.237 281.972,141.763 284,163 C285.648,180.256 289.182,199.259 292.51,214.723 " fill="none" id="Clients-Accounts" style="stroke:#181818;stroke-width:1.0;stroke-dasharray:7.0,7.0;"/><line style="stroke:#181818;stroke-width:1.0;" x1="291.9465" x2="294.325" y1="65.8228" y2="55.083"/><ellipse cx="291.9465" cy="65.8228" fill="none" rx="4" ry="4" style="stroke:#181818;stroke-width:1.0;"/><line style="stroke:#181818;stroke-width:1.0;" x1="289.5547" x2="297.3654" y1="58.1234" y2="59.8533"/><line style="stroke:#181818;stroke-width:1.0;" x1="292.5952" x2="300.1831" y1="215.1063" y2="221.6196"/><line style="stroke:#181818;stroke-width:1.0;" x1="292.5952" x2="288.4669" y1="215.1063" y2="224.2144"/><line style="stroke:#181818;stroke-width:1.0;" x1="292.5952" x2="294.325" y1="215.1063" y2="222.917"/><line style="stroke:#181818;stroke-width:1.0;" x1="296.0681" x2="288.2573" y1="212.2887" y2="214.0185"/></g><!--link Clients to Contracts--><g id="link_Clients_Contracts"><path codeLine="2" d="M315.178,62.356 C322.197,76.393 330.521,93.041 337.57,107.14 " fill="none" id="Clients-Contracts" style="stroke:#181818;stroke-width:1.0;stroke-dasharray:7.0,7.0;"/><line style="stroke:#181818;stroke-width:1.0;" x1="309.7111" x2="316.8666" y1="60.3666" y2="56.7889"/><line style="stroke:#181818;stroke-width:1.0;" x1="311.0528" x2="318.2082" y1="63.0498" y2="59.4721"/><line style="stroke:#181818;stroke-width:1.0;" x1="315.0777" x2="311.5" y1="62.1554" y2="55"/><line style="stroke:#181818;stroke-width:1.0;" x1="337.7619" x2="346.7058" y1="107.5223" y2="111.9951"/><line style="stroke:#181818;stroke-width:1.0;" x1="337.7619" x2="335.9722" y1="107.5223" y2="117.3609"/><line style="stroke:#181818;stroke-width:1.0;" x1="337.7619" x2="341.339" y1="107.5223" y2="114.678"/><line style="stroke:#181818;stroke-width:1.0;" x1="340.4454" x2="333.2897" y1="103.9448" y2="107.5219"/></g><!--link Contracts to Accounts--><g id="link_Contracts_Accounts"><path codeLine="3" d="M337.822,170.356 C330.803,184.393 322.479,201.041 315.43,215.14 " fill="none" id="Contracts-Accounts" style="stroke:#181818;stroke-width:1.0;stroke-dasharray:7.0,7.0;"/><line style="stroke:#181818;stroke-width:1.0;" x1="336.5807" x2="341.5" y1="172.8387" y2="163"/><ellipse cx="336.5807" cy="172.8387" fill="none" rx="4" ry="4" style="stroke:#181818;stroke-width:1.0;"/><line style="stroke:#181818;stroke-width:1.0;" x1="336.1334" x2="343.2889" y1="164.7889" y2="168.3666"/><line style="stroke:#181818;stroke-width:1.0;" x1="315.2381" x2="317.0278" y1="215.5223" y2="225.3609"/><line style="stroke:#181818;stroke-width:1.0;" x1="315.2381" x2="306.2942" y1="215.5223" y2="219.9951"/><line style="stroke:#181818;stroke-width:1.0;" x1="315.2381" x2="311.661" y1="215.5223" y2="222.678"/><line style="stroke:#181818;stroke-width:1.0;" x1="319.7103" x2="312.5546" y1="215.5219" y2="211.9448"/></g><!--link Accounts to Currency--><g id="link_Accounts_Currency"><path codeLine="4" d="M243.405,272.789 C204.411,289.87 152.821,312.467 113.963,329.487 " fill="none" id="Accounts-Currency" style="stroke:#181818;stroke-width:1.0;stroke-dasharray:7.0,7.0;"/><line style="stroke:#181818;stroke-width:1.0;" x1="243.4081" x2="248.3287" y1="272.7877" y2="264.0821"/><line style="stroke:#181818;stroke-width:1.0;" x1="243.4081" x2="253.1433" y1="272.7877" y2="275.0739"/><line style="stroke:#181818;stroke-width:1.0;" x1="243.4081" x2="250.736" y1="272.7877" y2="269.578"/><line style="stroke:#181818;stroke-width:1.0;" x1="239.9713" x2="243.181" y1="269.9262" y2="277.2541"/><line style="stroke:#181818;stroke-width:1.0;" x1="113.6965" x2="108.7759" y1="329.6043" y2="338.3099"/><line style="stroke:#181818;stroke-width:1.0;" x1="113.6965" x2="103.9613" y1="329.6043" y2="327.3181"/><line style="stroke:#181818;stroke-width:1.0;" x1="113.6965" x2="106.3686" y1="329.6043" y2="332.814"/><line style="stroke:#181818;stroke-width:1.0;" x1="117.1333" x2="113.9236" y1="332.4658" y2="325.1379"/></g><!--link Currency to Rate--><g id="link_Currency_Rate"><path codeLine="5" d="M58,387.259 C58,400.893 58,416.85 58,430.511 " fill="none" id="Currency-Rate" style="stroke:#181818;stroke-width:1.0;stroke-dasharray:7.0,7.0;"/><line style="stroke:#181818;stroke-width:1.0;" x1="54" x2="62" y1="383" y2="383"/><line style="stroke:#181818;stroke-width:1.0;" x1="54" x2="62" y1="386" y2="386"/><line style="stroke:#181818;stroke-width:1.0;" x1="58" x2="58" y1="387" y2="379"/><line style="stroke:#181818;stroke-width:1.0;" x1="58" x2="64" y1="430.678" y2="438.678"/><line style="stroke:#181818;stroke-width:1.0;" x1="58" x2="52" y1="430.678" y2="438.678"/><line style="stroke:#181818;stroke-width:1.0;" x1="58" x2="58" y1="430.678" y2="438.678"/><line style="stroke:#181818;stroke-width:1.0;" x1="62" x2="54" y1="428.678" y2="428.678"/></g><!--link Rate to TypeRate--><g id="link_Rate_TypeRate"><path codeLine="6" d="M58,495.2585 C58,508.8932 58,524.8501 58,538.5107 " fill="none" id="Rate-TypeRate" style="stroke:#181818;stroke-width:1.0;stroke-dasharray:7.0,7.0;"/><line style="stroke:#181818;stroke-width:1.0;" x1="58" x2="52" y1="495" y2="487"/><line style="stroke:#181818;stroke-width:1.0;" x1="58" x2="64" y1="495" y2="487"/><line style="stroke:#181818;stroke-width:1.0;" x1="58" x2="58" y1="495" y2="487"/><line style="stroke:#181818;stroke-width:1.0;" x1="54" x2="62" y1="497" y2="497"/><line style="stroke:#181818;stroke-width:1.0;" x1="62" x2="54" y1="542.6784" y2="542.6784"/><line style="stroke:#181818;stroke-width:1.0;" x1="62" x2="54" y1="539.6784" y2="539.6784"/><line style="stroke:#181818;stroke-width:1.0;" x1="58" x2="58" y1="538.6784" y2="546.6784"/></g><!--link Accounts to Saldo--><g id="link_Accounts_Saldo"><path codeLine="7" d="M267.102,276.351 C249.546,291.481 227.989,310.058 210.363,325.248 " fill="none" id="Accounts-Saldo" style="stroke:#181818;stroke-width:1.0;stroke-dasharray:7.0,7.0;"/><line style="stroke:#181818;stroke-width:1.0;" x1="267.6697" x2="272.8924" y1="270.5814" y2="276.6413"/><line style="stroke:#181818;stroke-width:1.0;" x1="265.3972" x2="270.62" y1="272.54" y2="278.5999"/><line style="stroke:#181818;stroke-width:1.0;" x1="267.2511" x2="273.311" y1="276.2228" y2="271"/><line style="stroke:#181818;stroke-width:1.0;" x1="210.1219" x2="207.9791" y1="325.4552" y2="335.2229"/><line style="stroke:#181818;stroke-width:1.0;" x1="210.1219" x2="200.1449" y1="325.4552" y2="326.1331"/><line style="stroke:#181818;stroke-width:1.0;" x1="210.1219" x2="204.062" y1="325.4552" y2="330.678"/><line style="stroke:#181818;stroke-width:1.0;" x1="214.2483" x2="209.0255" y1="327.1795" y2="321.1196"/></g><!--link Accounts to BaseSaldo--><g id="link_Accounts_BaseSaldo"><path codeLine="8" d="M300,279.259 C300,292.893 300,308.85 300,322.511 " fill="none" id="Accounts-BaseSaldo" style="stroke:#181818;stroke-width:1.0;stroke-dasharray:7.0,7.0;"/><line style="stroke:#181818;stroke-width:1.0;" x1="296" x2="304" y1="275" y2="275"/><line style="stroke:#181818;stroke-width:1.0;" x1="296" x2="304" y1="278" y2="278"/><line style="stroke:#181818;stroke-width:1.0;" x1="300" x2="300" y1="279" y2="271"/><line style="stroke:#181818;stroke-width:1.0;" x1="300" x2="306" y1="322.678" y2="330.678"/><line style="stroke:#181818;stroke-width:1.0;" x1="300" x2="294" y1="322.678" y2="330.678"/><line style="stroke:#181818;stroke-width:1.0;" x1="300" x2="300" y1="322.678" y2="330.678"/><line style="stroke:#181818;stroke-width:1.0;" x1="304" x2="296" y1="320.678" y2="320.678"/></g><!--link Accounts to Documents--><g id="link_Accounts_Documents"><path codeLine="9" d="M327.093,276.149 C346.56,291.699 372.899,310.938 395.898,326.4 " fill="none" id="Accounts-Documents" style="stroke:#181818;stroke-width:1.0;"/><line style="stroke:#181818;stroke-width:1.0;" x1="321.3277" x2="326.3629" y1="276.6259" y2="270.4093"/><line style="stroke:#181818;stroke-width:1.0;" x1="323.6589" x2="328.6942" y1="278.5142" y2="272.2976"/><line style="stroke:#181818;stroke-width:1.0;" x1="326.9536" x2="320.737" y1="276.0353" y2="271"/><line style="stroke:#181818;stroke-width:1.0;" x1="395.9423" x2="405.9265" y1="326.4293" y2="325.8672"/><line style="stroke:#181818;stroke-width:1.0;" x1="395.9423" x2="399.2775" y1="326.4293" y2="335.8568"/><line style="stroke:#181818;stroke-width:1.0;" x1="395.9423" x2="402.602" y1="326.4293" y2="330.862"/><line style="stroke:#181818;stroke-width:1.0;" x1="396.4937" x2="392.0611" y1="321.9913" y2="328.651"/></g><!--link Accounts to Documents--><g id="link_Accounts_Documents"><path codeLine="10" d="M349.579,275.472 C372.587,290.859 398.833,310.016 418.212,325.557 " fill="none" id="Accounts-Documents-1" style="stroke:#181818;stroke-width:1.0;"/><line style="stroke:#181818;stroke-width:1.0;" x1="343.9492" x2="348.363" y1="276.543" y2="269.8708"/><line style="stroke:#181818;stroke-width:1.0;" x1="346.4512" x2="350.8651" y1="278.1982" y2="271.526"/><line style="stroke:#181818;stroke-width:1.0;" x1="349.4922" x2="342.82" y1="275.4138" y2="271"/><line style="stroke:#181818;stroke-width:1.0;" x1="418.3009" x2="428.2931" y1="325.6285" y2="326.0242"/><line style="stroke:#181818;stroke-width:1.0;" x1="418.3009" x2="420.7189" y1="325.6285" y2="335.3318"/><line style="stroke:#181818;stroke-width:1.0;" x1="418.3009" x2="424.506" y1="325.6285" y2="330.678"/><line style="stroke:#181818;stroke-width:1.0;" x1="419.2744" x2="414.2249" y1="321.2636" y2="327.4687"/></g><!--SRC=[Syx9JCqhALPGKAZ9rzEhgLPmJ4xEBmMAS3aZP6h0CixvUIL5YSaWAHWBGnECeQ1G2zLKMbIKcfTSoGLZm8qBIYn9vG8H2c00Lb-Z459Pa0eLH38CgYKuCISb7rFOAR4u5LDALnSevPAVN9gRYkeoT2a0]--></g></svg>